<svg width="9" height="10" viewBox="0 0 9 10" fill="none" xmlns="http://www.w3.org/2000/svg">
<path d="M9 3.92C9 4.06322 8.94311 4.20057 8.84184 4.30184C8.74057 4.40311 8.60322 4.46 8.46 4.46C8.31678 4.46 8.17943 4.40311 8.07816 4.30184C7.97689 4.20057 7.92 4.06322 7.92 3.92V2.345L5.24205 5.02295C5.1406 5.12439 5.00302 5.18139 4.85955 5.18139C4.71608 5.18139 4.5785 5.12439 4.47705 5.02295C4.3756 4.9215 4.31861 4.78392 4.31861 4.64045C4.31861 4.49698 4.3756 4.3594 4.47705 4.25795L7.155 1.58H5.58C5.43678 1.58 5.29943 1.52311 5.19816 1.42184C5.09689 1.32057 5.04 1.18322 5.04 1.04C5.04 0.896783 5.09689 0.759432 5.19816 0.658162C5.29943 0.556893 5.43678 0.5 5.58 0.5H8.46C8.60322 0.5 8.74057 0.556893 8.84184 0.658162C8.94311 0.759432 9 0.896783 9 1.04V3.92ZM7.02 5C6.87678 5 6.73943 5.05689 6.63816 5.15816C6.53689 5.25943 6.48 5.39678 6.48 5.54V8.42H1.08V3.02H3.96C4.10322 3.02 4.24057 2.96311 4.34184 2.86184C4.44311 2.76057 4.5 2.62322 4.5 2.48C4.5 2.33678 4.44311 2.19943 4.34184 2.09816C4.24057 1.99689 4.10322 1.94 3.96 1.94H0.9C0.661305 1.94 0.432387 2.03482 0.263604 2.2036C0.0948212 2.37239 0 2.60131 0 2.84V8.6C0 8.83869 0.0948212 9.06761 0.263604 9.2364C0.432387 9.40518 0.661305 9.5 0.9 9.5H6.66C6.89869 9.5 7.12761 9.40518 7.2964 9.2364C7.46518 9.06761 7.56 8.83869 7.56 8.6V5.54C7.56 5.39678 7.50311 5.25943 7.40184 5.15816C7.30057 5.05689 7.16322 5 7.02 5Z" fill="#E9E1D0"/>
</svg>
